<svg width="268" height="37" viewBox="0 0 268 37" fill="none" xmlns="http://www.w3.org/2000/svg">
  <g clip-path="url(#clip0_623_5161)">
    <path fill-rule="evenodd" clip-rule="evenodd" d="M222.584 27.1536C220.738 32.8519 213.693 35.8026 202.391 36.011L204.318 30.0603C208.097 29.8848 210.749 28.9305 211.315 27.2468C211.468 25.9963 210.815 24.9598 209.36 24.1261L196.383 16.2998C193.549 14.4132 191.82 12.0712 192.604 8.90676C194.131 2.74759 200.798 0.20841 211.688 0L209.799 5.82998C206.608 6.02194 204.73 6.89397 204.159 8.44607C203.632 9.87739 203.742 10.7001 204.889 11.3967C204.889 11.3967 218.525 19.0914 218.586 19.1243C222.249 21.362 223.512 23.8628 222.573 27.1426L222.584 27.1536Z" fill="#201B16"/>
    <path fill-rule="evenodd" clip-rule="evenodd" d="M197.289 25.0145C196.444 28.0529 197.937 29.7092 201.979 29.9999L200.035 36.0054C188.514 35.6873 183.988 32.0237 186.262 25.0145H197.289Z" fill="#201B16"/>
    <path fill-rule="evenodd" clip-rule="evenodd" d="M23.2298 6.39461L25.1135 0.58657H39.4743L37.5906 6.39461H23.2298ZM18.7651 20.1222L20.6488 14.3142H34.1638L32.2802 20.1222H18.7651ZM11.2415 0.581085H22.7521L11.5106 35.2868H0L11.2415 0.581085Z" fill="#201B16"/>
    <path fill-rule="evenodd" clip-rule="evenodd" d="M32.5276 35.2868L43.7691 0.581085H55.2797L44.0382 35.2868H32.5276Z" fill="#F69400"/>
    <path fill-rule="evenodd" clip-rule="evenodd" d="M89.1299 0.581085H100.641L89.399 35.2868H77.9214L89.1299 0.581085Z" fill="#201B16"/>
    <path fill-rule="evenodd" clip-rule="evenodd" d="M80.162 21.0328L76.3068 32.9341L69.6179 15.3893L73.5225 3.33997L80.162 21.0328Z" fill="#201B16"/>
    <path fill-rule="evenodd" clip-rule="evenodd" d="M60.5622 0.581085H72.0728L60.8313 35.2868H49.3207L60.5622 0.581085Z" fill="#201B16"/>
    <path fill-rule="evenodd" clip-rule="evenodd" d="M165.514 29.4789L163.63 35.287H150.505L152.389 29.4789H165.514Z" fill="#201B16"/>
    <path fill-rule="evenodd" clip-rule="evenodd" d="M147.886 0.581085H159.396L148.155 35.2868H136.644L147.886 0.581085Z" fill="#201B16"/>
    <path fill-rule="evenodd" clip-rule="evenodd" d="M167.798 35.2868L179.04 0.581085H190.551L179.309 35.2868H167.798Z" fill="#201B16"/>
    <path fill-rule="evenodd" clip-rule="evenodd" d="M216.208 10.0145C216.96 7.55196 215.307 6.126 212.166 5.82435L214.05 0.00534058C224.967 0.279564 229.86 3.60863 227.795 9.98706L216.208 10.009V10.0145Z" fill="#201B16"/>
    <path fill-rule="evenodd" clip-rule="evenodd" d="M233.216 35.2867L241.925 8.38547H253.469L244.765 35.2867H233.216Z" fill="#201B16"/>
    <path fill-rule="evenodd" clip-rule="evenodd" d="M232.568 0.581085H268L266.116 6.39461H230.69L232.568 0.581085Z" fill="#201B16"/>
    <path fill-rule="evenodd" clip-rule="evenodd" d="M117.044 0.581085H126.902L104.529 35.2868H93.1555L117.044 0.581085Z" fill="#201B16"/>
    <path fill-rule="evenodd" clip-rule="evenodd" d="M121.207 35.2868L122.245 0.581085H131.795L133.168 35.2868H121.207Z" fill="#201B16"/>
    <path fill-rule="evenodd" clip-rule="evenodd" d="M121.597 22.2557H115.276L111.591 28.0638H121.427L121.597 22.2557Z" fill="#201B16"/>
  </g>
  <defs>
    <clipPath id="clip0_623_5161">
      <rect width="268" height="36.011" fill="white"/>
    </clipPath>
  </defs>
</svg>
